<svg version="1.1" id="Layer_1" xmlns="http://www.w3.org/2000/svg" xmlns:xlink="http://www.w3.org/1999/xlink" x="0px" y="0px"
	 width="100%" viewBox="0 0 1000 400" enable-background="new 0 0 1000 400" xml:space="preserve">
<path fill="#FFFFFF" opacity="1.000000" stroke="none" 
	d="
M682.000000,401.000000 
	C454.666656,401.000000 227.833328,401.000000 1.000000,401.000000 
	C1.000000,267.666656 1.000000,134.333328 1.000000,1.000000 
	C334.333344,1.000000 667.666687,1.000000 1001.000000,1.000000 
	C1001.000000,134.333328 1001.000000,267.666656 1001.000000,401.000000 
	C894.833313,401.000000 788.666687,401.000000 682.000000,401.000000 
M150.706223,240.534393 
	C147.611633,238.348419 144.751633,235.664856 141.376602,234.073822 
	C132.749603,230.006882 123.774261,227.037888 114.024384,229.556824 
	C112.709930,229.896423 111.583839,230.965103 110.370529,231.696182 
	C111.275856,232.681824 112.031387,233.889114 113.110107,234.618210 
	C122.082726,240.682663 130.256577,247.525787 135.985107,256.924164 
	C139.479355,262.656860 142.033615,269.588593 148.685883,272.243835 
	C156.273026,275.272217 164.232941,277.623260 172.236069,279.273438 
	C178.882019,280.643799 185.825439,280.571594 192.637085,281.138458 
	C192.833023,280.647583 193.028946,280.156708 193.224884,279.665833 
	C192.068710,278.382538 190.928787,277.084137 189.753204,275.818878 
	C186.710098,272.543762 183.097397,269.638885 180.721024,265.938293 
	C176.557114,259.454010 173.345078,252.366714 169.372299,245.749374 
	C164.398544,237.464722 157.281082,232.198547 146.375229,231.003830 
	C148.731644,234.476852 150.511810,237.100555 151.762924,240.259674 
	C151.609940,240.458527 151.456955,240.657379 150.706223,240.534393 
M585.786621,239.554489 
	C585.855164,208.719849 585.929871,177.885223 585.949951,147.050552 
	C585.950378,146.412537 585.318787,145.774078 584.058594,144.986191 
	C575.512695,145.326401 566.966736,145.666626 558.385376,146.008255 
	C558.385376,177.739288 558.385376,208.634354 558.385376,239.864182 
	C567.439636,239.864182 576.210815,239.864182 585.786621,239.554489 
M298.693207,230.021713 
	C304.839203,234.421295 310.902039,238.943466 317.155396,243.184799 
	C322.998077,247.147614 330.813599,245.883179 334.378632,240.690781 
	C337.939728,235.504196 336.087341,227.246887 330.636932,223.200562 
	C318.232208,213.991409 305.773010,204.848480 293.572693,195.373764 
	C286.300812,189.726456 279.491272,185.625916 269.795044,190.709381 
	C259.997986,195.845734 249.501724,199.648422 238.934616,204.197708 
	C234.844498,196.076630 230.884445,188.213837 226.813583,180.131012 
	C236.348557,176.798752 245.360413,173.722351 254.315491,170.488785 
	C258.761536,168.883347 261.193695,165.839584 261.030243,160.774124 
	C260.882599,156.198471 258.360443,153.130508 254.429092,152.768021 
	C250.701111,152.424271 246.677429,153.737793 242.979919,154.930557 
	C234.868423,157.547195 226.880981,160.548492 218.760117,163.422043 
	C216.228119,158.870636 214.086655,154.422318 211.401398,150.330933 
	C207.084000,143.752762 197.913071,143.227951 192.752930,149.134674 
	C187.989731,154.586990 189.919861,160.316284 192.638947,165.814850 
	C202.109634,184.966599 211.672760,204.072800 221.253235,223.169983 
	C225.334671,231.305664 231.168320,233.747696 239.749619,230.234863 
	C251.270096,225.518845 262.570282,220.265991 273.993500,215.309219 
	C275.247803,214.764954 277.232697,213.915833 277.958923,214.452591 
	C284.762207,219.480865 291.364777,224.780655 297.444214,230.753571 
	C296.035553,230.277390 294.655182,229.678040 293.213226,229.346649 
	C287.424042,228.016083 283.163635,229.894684 281.545898,234.956009 
	C277.193146,248.574478 268.433228,257.801086 255.446976,263.841461 
	C231.832611,274.825287 201.005173,262.038055 192.311539,237.370621 
	C187.209106,222.892914 188.950317,209.260818 196.864349,196.438614 
	C199.923630,191.482010 198.652374,185.154892 194.566208,182.775284 
	C190.183502,180.222946 184.392410,182.308838 181.141342,187.647430 
	C163.069443,217.323547 171.484024,256.552551 201.084229,275.326874 
	C229.564178,293.390686 267.233215,288.023071 288.167969,260.415436 
	C294.739471,251.749268 301.699371,242.572296 297.616425,230.270020 
	C297.598541,230.216156 297.859558,230.069763 298.693207,230.021713 
M427.264191,241.985901 
	C444.021423,239.814072 454.870178,230.425644 459.762024,214.474716 
	C463.219116,203.202087 463.653412,191.600266 461.308960,179.967010 
	C458.028351,163.688477 448.332184,153.528824 431.940643,150.853729 
	C424.332825,149.612137 416.284912,149.120743 408.686829,150.145416 
	C388.959991,152.805756 375.790771,161.672028 371.918640,181.024109 
	C369.680573,192.209518 369.883667,203.520111 372.782654,214.652283 
	C376.006500,227.031738 383.652283,235.460358 395.865540,239.317169 
	C405.791656,242.451721 416.017944,243.425751 427.264191,241.985901 
M626.604614,189.984161 
	C625.031921,183.525848 623.539612,177.045914 621.814453,170.628555 
	C621.493042,169.432938 620.258484,167.587982 619.407715,167.567017 
	C610.351257,167.343857 601.287231,167.428482 591.769348,167.428482 
	C592.336853,169.558212 592.596680,170.835266 593.014954,172.058090 
	C599.580139,191.250610 606.170837,210.434387 612.744202,229.624115 
	C615.792297,238.522552 615.781189,238.522812 625.055542,239.202591 
	C625.276306,239.218765 625.473206,239.562042 625.678833,239.755402 
	C623.179871,248.000183 623.179871,248.007050 615.085144,247.996857 
	C611.753601,247.992676 608.406494,247.762604 605.099365,248.035065 
	C604.011108,248.124741 602.240906,249.368210 602.123230,250.260849 
	C601.411682,255.658417 601.088684,261.107208 600.585571,267.141235 
	C605.792297,267.744873 610.378906,268.851868 614.924744,268.704498 
	C635.023987,268.052917 638.711792,267.459229 647.166565,249.863358 
	C648.530457,247.024963 649.788574,244.103165 650.748962,241.108765 
	C658.262268,217.682983 665.695251,194.231445 673.127808,170.779846 
	C673.399841,169.921539 673.410950,168.980530 673.595581,167.724854 
	C664.524231,167.724854 655.873169,167.601959 647.234314,167.870285 
	C646.069580,167.906479 644.258667,169.741760 643.949768,171.031952 
	C642.054016,178.950546 640.521240,186.955582 638.834412,194.924805 
	C637.314026,202.107285 635.751221,209.280762 634.207153,216.458221 
	C633.872009,216.429581 633.536926,216.400940 633.201782,216.372314 
	C631.094177,207.836899 628.986572,199.301483 626.604614,189.984161 
M727.786621,150.699158 
	C718.841858,150.896225 709.888855,150.917709 700.954346,151.335098 
	C689.944641,151.849472 683.805176,158.358444 681.157593,168.547791 
	C677.270630,183.507278 681.109741,197.639816 696.709045,203.999771 
	C699.629944,205.190674 702.616028,206.221390 705.569763,207.332214 
	C709.608459,208.851120 713.877014,209.969467 717.576782,212.082947 
	C719.235901,213.030731 720.513123,215.989288 720.477966,218.009552 
	C720.459717,219.061157 717.296570,220.279922 715.393066,220.994675 
	C714.229797,221.431442 712.753906,221.139877 711.430603,221.029526 
	C701.713623,220.219299 691.999695,219.372223 681.780518,218.493378 
	C680.815613,224.217484 679.861572,229.746536 678.960144,235.284134 
	C678.563477,237.721344 679.525513,238.843979 682.138306,239.147903 
	C688.233459,239.856949 694.263123,241.291824 700.368835,241.711472 
	C710.978394,242.440643 721.557434,242.650513 731.957703,239.246567 
	C752.522827,232.515686 753.758362,202.941772 741.321960,193.764038 
	C736.475769,190.187668 730.676392,187.826340 725.139099,185.286560 
	C720.473022,183.146347 715.372559,181.902344 710.848633,179.529297 
	C709.150208,178.638412 708.534729,175.683075 707.425476,173.668945 
	C709.349487,172.968918 711.287537,171.634735 713.195190,171.676712 
	C722.313599,171.877426 731.423706,172.451340 741.161438,172.922806 
	C742.170532,166.342987 743.154724,159.925781 744.223999,152.953598 
	C738.500122,152.127884 733.601196,151.421158 727.786621,150.699158 
M535.634644,167.544174 
	C521.118591,163.620773 508.778870,167.339172 498.402466,178.681564 
	C497.363007,174.737137 496.454834,171.291031 495.599030,168.043472 
	C487.855347,168.043472 480.612885,168.043472 473.341064,168.043472 
	C473.341064,192.256561 473.341064,216.145050 473.341064,239.903915 
	C482.591156,239.903915 491.493195,239.903915 500.779938,239.903915 
	C500.779938,225.067230 501.024506,210.596283 500.643280,196.141861 
	C500.515076,191.279755 502.489380,189.604691 506.694885,189.221848 
	C508.020477,189.101181 509.352081,189.017471 510.682587,188.984756 
	C518.002502,188.804733 518.694702,189.462967 518.707031,196.794357 
	C518.728394,209.453430 518.717773,222.112564 518.720520,234.771667 
	C518.720886,236.517059 518.720581,238.262451 518.720581,239.968109 
	C528.300354,239.968109 537.052917,239.968109 545.436707,239.968109 
	C545.436707,219.738922 545.404968,199.823227 545.455078,179.907715 
	C545.471130,173.521225 542.226196,169.710678 535.634644,167.544174 
M913.966431,204.652985 
	C908.856079,201.427338 903.933472,197.833313 898.571716,195.101242 
	C894.785217,193.171829 890.335510,192.583466 886.332642,191.012512 
	C885.270935,190.595856 884.079712,188.673843 884.217041,187.606308 
	C884.331116,186.719391 886.262695,185.530212 887.469849,185.428055 
	C890.260376,185.191864 893.103821,185.471832 895.918518,185.654709 
	C901.145325,185.994339 906.366882,186.414124 911.957153,186.827637 
	C912.682800,180.318237 913.350647,174.326736 914.067566,167.895645 
	C904.451477,167.265945 895.664001,166.187286 886.889343,166.283386 
	C880.469971,166.353729 874.039307,167.815292 867.675659,168.991913 
	C865.866516,169.326401 863.779053,170.444504 862.659302,171.865280 
	C851.237061,186.359039 858.225891,207.946075 875.887329,213.121277 
	C879.236816,214.102737 882.700562,214.826691 885.876953,216.208755 
	C887.400269,216.871552 888.375854,218.793228 889.599548,220.144791 
	C888.049011,220.750000 886.478149,221.921051 884.951355,221.866165 
	C876.677368,221.568726 868.414429,220.968201 859.503967,220.433472 
	C858.354980,226.280518 857.156921,232.376923 855.975586,238.388565 
	C866.945129,242.341293 888.203186,243.314331 898.325195,240.497513 
	C915.127014,235.821793 922.840271,218.873322 913.966431,204.652985 
M845.407410,184.002869 
	C847.178894,184.002869 848.950317,184.002869 850.794556,184.002869 
	C850.794556,178.313583 850.794556,173.238297 850.794556,167.715515 
	C845.424500,167.715515 840.327209,167.715515 834.666016,167.715515 
	C834.666016,161.371216 834.666016,155.464218 834.666016,149.271744 
	C830.789978,149.507034 827.406677,150.303955 824.236328,149.789337 
	C816.074890,148.464554 811.944214,152.056931 810.245605,159.673706 
	C808.985107,165.325912 806.149841,169.201416 799.446960,168.368881 
	C798.115967,168.203598 796.667847,168.981201 795.365723,169.301376 
	C795.365723,174.263489 795.365723,178.860428 795.365723,184.102112 
	C799.340942,184.102112 803.052246,184.102112 806.997864,184.102112 
	C806.997864,197.229431 806.944214,209.705719 807.014038,222.181290 
	C807.075562,233.163223 811.960388,238.998398 822.823608,241.259491 
	C832.046509,243.179153 840.897522,241.223480 850.297180,238.791870 
	C849.805054,232.831924 849.332520,227.109802 848.807251,220.748749 
	C845.257263,220.748749 842.134949,220.806351 839.015869,220.730225 
	C836.584167,220.670914 834.904724,219.793411 834.920410,216.894897 
	C834.978760,206.109299 834.943665,195.323196 834.943665,184.002869 
	C838.203735,184.002869 841.323181,184.002869 845.407410,184.002869 
M760.225525,181.509995 
	C760.225525,200.943649 760.225525,220.377304 760.225525,239.893646 
	C769.778015,239.893646 778.688599,239.893646 787.640747,239.893646 
	C787.640747,215.744568 787.640747,191.873856 787.640747,168.213196 
	C778.366821,168.213196 769.462036,168.213196 760.227295,168.213196 
	C760.227295,172.566483 760.227295,176.540421 760.225525,181.509995 
M182.949722,116.187096 
	C182.069946,116.648613 181.146149,117.042572 180.317581,117.582634 
	C174.999832,121.048775 173.181427,126.204056 174.307922,132.123596 
	C175.195236,136.786179 177.664612,140.745102 182.758591,142.112106 
	C188.429001,143.633835 193.771011,143.874054 198.283081,138.986069 
	C202.574127,134.337524 203.382034,127.741249 199.981659,121.667480 
	C196.841888,116.059219 191.495972,114.172348 182.949722,116.187096 
M761.618469,151.422180 
	C764.023132,153.825989 766.054993,156.904877 768.914917,158.484146 
	C773.892212,161.232681 778.988953,159.859863 783.314819,156.434372 
	C787.411621,153.190247 788.219482,148.654449 787.124390,143.795547 
	C785.932861,138.508896 782.338013,135.706665 777.126770,134.621964 
	C766.724243,132.456711 759.792908,139.454971 761.618469,151.422180 
z"/>
<path fill="#02ADEE" opacity="1.000000" stroke="none" 
	d="
M426.832794,242.025391 
	C416.017944,243.425751 405.791656,242.451721 395.865540,239.317169 
	C383.652283,235.460358 376.006500,227.031738 372.782654,214.652283 
	C369.883667,203.520111 369.680573,192.209518 371.918640,181.024109 
	C375.790771,161.672028 388.959991,152.805756 408.686829,150.145416 
	C416.284912,149.120743 424.332825,149.612137 431.940643,150.853729 
	C448.332184,153.528824 458.028351,163.688477 461.308960,179.967010 
	C463.653412,191.600266 463.219116,203.202087 459.762024,214.474716 
	C454.870178,230.425644 444.021423,239.814072 426.832794,242.025391 
M413.781647,169.036423 
	C409.871704,169.337280 405.821594,169.761353 404.697845,174.391373 
	C401.526031,187.459259 400.804260,200.657349 404.417084,213.729446 
	C406.310974,220.582047 410.487854,223.191208 417.301849,223.060028 
	C424.290344,222.925491 427.766754,220.369186 429.766754,213.247101 
	C432.786835,202.492554 432.819427,191.578735 430.283539,180.753586 
	C428.175690,171.755783 424.096619,168.907913 413.781647,169.036423 
z"/>
<path fill="#078FD0" opacity="1.000000" stroke="none" 
	d="
M298.025391,230.001923 
	C291.364777,224.780655 284.762207,219.480865 277.958923,214.452591 
	C277.232697,213.915833 275.247803,214.764954 273.993500,215.309219 
	C262.570282,220.265991 251.270096,225.518845 239.749619,230.234863 
	C231.168320,233.747696 225.334671,231.305664 221.253235,223.169983 
	C211.672760,204.072800 202.109634,184.966599 192.638947,165.814850 
	C189.919861,160.316284 187.989731,154.586990 192.752930,149.134674 
	C197.913071,143.227951 207.084000,143.752762 211.401398,150.330933 
	C214.086655,154.422318 216.228119,158.870636 218.760117,163.422043 
	C226.880981,160.548492 234.868423,157.547195 242.979919,154.930557 
	C246.677429,153.737793 250.701111,152.424271 254.429092,152.768021 
	C258.360443,153.130508 260.882599,156.198471 261.030243,160.774124 
	C261.193695,165.839584 258.761536,168.883347 254.315491,170.488785 
	C245.360413,173.722351 236.348557,176.798752 226.813583,180.131012 
	C230.884445,188.213837 234.844498,196.076630 238.934616,204.197708 
	C249.501724,199.648422 259.997986,195.845734 269.795044,190.709381 
	C279.491272,185.625916 286.300812,189.726456 293.572693,195.373764 
	C305.773010,204.848480 318.232208,213.991409 330.636932,223.200562 
	C336.087341,227.246887 337.939728,235.504196 334.378632,240.690781 
	C330.813599,245.883179 322.998077,247.147614 317.155396,243.184799 
	C310.902039,238.943466 304.839203,234.421295 298.336853,230.016800 
	C297.980530,230.011887 298.025391,230.001923 298.025391,230.001923 
z"/>
<path fill="#02ADEE" opacity="1.000000" stroke="none" 
	d="
M626.741821,190.375122 
	C628.986572,199.301483 631.094177,207.836899 633.201782,216.372314 
	C633.536926,216.400940 633.872009,216.429581 634.207153,216.458221 
	C635.751221,209.280762 637.314026,202.107285 638.834412,194.924805 
	C640.521240,186.955582 642.054016,178.950546 643.949768,171.031952 
	C644.258667,169.741760 646.069580,167.906479 647.234314,167.870285 
	C655.873169,167.601959 664.524231,167.724854 673.595581,167.724854 
	C673.410950,168.980530 673.399841,169.921539 673.127808,170.779846 
	C665.695251,194.231445 658.262268,217.682983 650.748962,241.108765 
	C649.788574,244.103165 648.530457,247.024963 647.166565,249.863358 
	C638.711792,267.459229 635.023987,268.052917 614.924744,268.704498 
	C610.378906,268.851868 605.792297,267.744873 600.585571,267.141235 
	C601.088684,261.107208 601.411682,255.658417 602.123230,250.260849 
	C602.240906,249.368210 604.011108,248.124741 605.099365,248.035065 
	C608.406494,247.762604 611.753601,247.992676 615.085144,247.996857 
	C623.179871,248.007050 623.179871,248.000183 625.680054,239.754089 
	C625.473206,239.562042 625.276306,239.218765 625.055542,239.202591 
	C615.781189,238.522812 615.792297,238.522552 612.744202,229.624115 
	C606.170837,210.434387 599.580139,191.250610 593.014954,172.058090 
	C592.596680,170.835266 592.336853,169.558212 591.769348,167.428482 
	C601.287231,167.428482 610.351257,167.343857 619.407715,167.567017 
	C620.258484,167.587982 621.493042,169.432938 621.814453,170.628555 
	C623.539612,177.045914 625.031921,183.525848 626.741821,190.375122 
z"/>
<path fill="#028BCD" opacity="1.000000" stroke="none" 
	d="
M728.244385,150.706787 
	C733.601196,151.421158 738.500122,152.127884 744.223999,152.953598 
	C743.154724,159.925781 742.170532,166.342987 741.161438,172.922806 
	C731.423706,172.451340 722.313599,171.877426 713.195190,171.676712 
	C711.287537,171.634735 709.349487,172.968918 707.425537,173.668945 
	C708.534729,175.683075 709.150208,178.638412 710.848633,179.529297 
	C715.372559,181.902344 720.473022,183.146347 725.139099,185.286560 
	C730.676392,187.826340 736.475769,190.187668 741.321960,193.764038 
	C753.758362,202.941772 752.522827,232.515686 731.957703,239.246567 
	C721.557434,242.650513 710.978394,242.440643 700.368835,241.711472 
	C694.263123,241.291824 688.233459,239.856949 682.138306,239.147903 
	C679.525513,238.843979 678.563477,237.721344 678.960144,235.284134 
	C679.861572,229.746536 680.815613,224.217484 681.780518,218.493378 
	C691.999695,219.372223 701.713623,220.219299 711.430603,221.029526 
	C712.753906,221.139877 714.229797,221.431442 715.393066,220.994675 
	C717.296570,220.279922 720.459717,219.061157 720.477966,218.009552 
	C720.513123,215.989288 719.235901,213.030731 717.576782,212.082947 
	C713.877014,209.969467 709.608459,208.851120 705.569763,207.332214 
	C702.616028,206.221390 699.629944,205.190674 696.709045,203.999771 
	C681.109741,197.639816 677.270630,183.507278 681.157593,168.547791 
	C683.805176,158.358444 689.944641,151.849472 700.954346,151.335098 
	C709.888855,150.917709 718.841858,150.896225 728.244385,150.706787 
z"/>
<path fill="#02ADEE" opacity="1.000000" stroke="none" 
	d="
M536.025024,167.635559 
	C542.226196,169.710678 545.471130,173.521225 545.455078,179.907715 
	C545.404968,199.823227 545.436707,219.738922 545.436707,239.968109 
	C537.052917,239.968109 528.300354,239.968109 518.720581,239.968109 
	C518.720581,238.262451 518.720886,236.517059 518.720520,234.771667 
	C518.717773,222.112564 518.728394,209.453430 518.707031,196.794357 
	C518.694702,189.462967 518.002502,188.804733 510.682587,188.984756 
	C509.352081,189.017471 508.020477,189.101181 506.694885,189.221848 
	C502.489380,189.604691 500.515076,191.279755 500.643280,196.141861 
	C501.024506,210.596283 500.779938,225.067230 500.779938,239.903915 
	C491.493195,239.903915 482.591156,239.903915 473.341064,239.903915 
	C473.341064,216.145050 473.341064,192.256561 473.341064,168.043472 
	C480.612885,168.043472 487.855347,168.043472 495.599030,168.043472 
	C496.454834,171.291031 497.363007,174.737137 498.402466,178.681564 
	C508.778870,167.339172 521.118591,163.620773 536.025024,167.635559 
z"/>
<path fill="#05AEEF" opacity="1.000000" stroke="none" 
	d="
M297.985443,229.989227 
	C297.859558,230.069763 297.598541,230.216156 297.616425,230.270020 
	C301.699371,242.572296 294.739471,251.749268 288.167969,260.415436 
	C267.233215,288.023071 229.564178,293.390686 201.084229,275.326874 
	C171.484024,256.552551 163.069443,217.323547 181.141342,187.647430 
	C184.392410,182.308838 190.183502,180.222946 194.566208,182.775284 
	C198.652374,185.154892 199.923630,191.482010 196.864349,196.438614 
	C188.950317,209.260818 187.209106,222.892914 192.311539,237.370621 
	C201.005173,262.038055 231.832611,274.825287 255.446976,263.841461 
	C268.433228,257.801086 277.193146,248.574478 281.545898,234.956009 
	C283.163635,229.894684 287.424042,228.016083 293.213226,229.346649 
	C294.655182,229.678040 296.035553,230.277390 297.734802,230.377747 
	C298.025391,230.001923 297.980530,230.011887 297.985443,229.989227 
z"/>
<path fill="#038BCD" opacity="1.000000" stroke="none" 
	d="
M914.155518,204.975449 
	C922.840271,218.873322 915.127014,235.821793 898.325195,240.497513 
	C888.203186,243.314331 866.945129,242.341293 855.975586,238.388565 
	C857.156921,232.376923 858.354980,226.280518 859.503967,220.433472 
	C868.414429,220.968201 876.677368,221.568726 884.951355,221.866165 
	C886.478149,221.921051 888.049011,220.750000 889.599548,220.144775 
	C888.375854,218.793228 887.400269,216.871552 885.876953,216.208755 
	C882.700562,214.826691 879.236816,214.102737 875.887329,213.121277 
	C858.225891,207.946075 851.237061,186.359039 862.659302,171.865280 
	C863.779053,170.444504 865.866516,169.326401 867.675659,168.991913 
	C874.039307,167.815292 880.469971,166.353729 886.889343,166.283386 
	C895.664001,166.187286 904.451477,167.265945 914.067566,167.895645 
	C913.350647,174.326736 912.682800,180.318237 911.957153,186.827637 
	C906.366882,186.414124 901.145325,185.994339 895.918518,185.654709 
	C893.103821,185.471832 890.260376,185.191864 887.469849,185.428055 
	C886.262695,185.530212 884.331116,186.719391 884.217041,187.606308 
	C884.079712,188.673843 885.270935,190.595856 886.332642,191.012512 
	C890.335510,192.583466 894.785217,193.171829 898.571716,195.101242 
	C903.933472,197.833313 908.856079,201.427338 914.155518,204.975449 
z"/>
<path fill="#038BCD" opacity="1.000000" stroke="none" 
	d="
M844.925049,184.002869 
	C841.323181,184.002869 838.203735,184.002869 834.943665,184.002869 
	C834.943665,195.323196 834.978760,206.109299 834.920410,216.894897 
	C834.904724,219.793411 836.584167,220.670914 839.015869,220.730225 
	C842.134949,220.806351 845.257263,220.748749 848.807251,220.748749 
	C849.332520,227.109802 849.805054,232.831924 850.297180,238.791870 
	C840.897522,241.223480 832.046509,243.179153 822.823608,241.259491 
	C811.960388,238.998398 807.075562,233.163223 807.014038,222.181290 
	C806.944214,209.705719 806.997864,197.229431 806.997864,184.102112 
	C803.052246,184.102112 799.340942,184.102112 795.365723,184.102112 
	C795.365723,178.860428 795.365723,174.263489 795.365723,169.301376 
	C796.667847,168.981201 798.115967,168.203598 799.446960,168.368881 
	C806.149841,169.201416 808.985107,165.325912 810.245605,159.673706 
	C811.944214,152.056931 816.074890,148.464554 824.236328,149.789337 
	C827.406677,150.303955 830.789978,149.507034 834.666016,149.271744 
	C834.666016,155.464218 834.666016,161.371216 834.666016,167.715515 
	C840.327209,167.715515 845.424500,167.715515 850.794556,167.715515 
	C850.794556,173.238297 850.794556,178.313583 850.794556,184.002869 
	C848.950317,184.002869 847.178894,184.002869 844.925049,184.002869 
z"/>
<path fill="#03ADED" opacity="1.000000" stroke="none" 
	d="
M584.981995,239.864182 
	C576.210815,239.864182 567.439636,239.864182 558.385376,239.864182 
	C558.385376,208.634354 558.385376,177.739288 558.385376,146.008255 
	C566.966736,145.666626 575.512695,145.326401 584.527222,145.520416 
	C584.991211,177.324493 584.986572,208.594345 584.981995,239.864182 
z"/>
<path fill="#048CCD" opacity="1.000000" stroke="none" 
	d="
M760.226440,181.012177 
	C760.227295,176.540421 760.227295,172.566483 760.227295,168.213196 
	C769.462036,168.213196 778.366821,168.213196 787.640747,168.213196 
	C787.640747,191.873856 787.640747,215.744568 787.640747,239.893646 
	C778.688599,239.893646 769.778015,239.893646 760.225525,239.893646 
	C760.225525,220.377304 760.225525,200.943649 760.226440,181.012177 
z"/>
<path fill="#0DB1F0" opacity="1.000000" stroke="none" 
	d="
M152.291962,239.724258 
	C150.511810,237.100555 148.731644,234.476852 146.375229,231.003830 
	C157.281082,232.198547 164.398544,237.464722 169.372299,245.749374 
	C173.345078,252.366714 176.557114,259.454010 180.721024,265.938293 
	C183.097397,269.638885 186.710098,272.543762 189.753204,275.818878 
	C190.928787,277.084137 192.068710,278.382538 193.224884,279.665833 
	C193.028946,280.156708 192.833023,280.647583 192.637085,281.138458 
	C185.825439,280.571594 178.882019,280.643799 172.236069,279.273438 
	C164.232941,277.623260 156.273026,275.272217 148.685883,272.243835 
	C142.033615,269.588593 139.479355,262.656860 135.985107,256.924164 
	C130.256577,247.525787 122.082726,240.682663 113.110107,234.618210 
	C112.031387,233.889114 111.275856,232.681824 110.370529,231.696182 
	C111.583839,230.965103 112.709930,229.896423 114.024384,229.556824 
	C123.774261,227.037888 132.749603,230.006882 141.376602,234.073822 
	C144.751633,235.664856 147.611633,238.348419 151.170593,240.976715 
	C152.120071,241.465683 152.605194,241.512329 153.090302,241.558975 
	C152.824188,240.947403 152.558075,240.335831 152.291962,239.724258 
z"/>
<path fill="#0A90D1" opacity="1.000000" stroke="none" 
	d="
M183.325470,116.054153 
	C191.495972,114.172348 196.841888,116.059219 199.981659,121.667480 
	C203.382034,127.741249 202.574127,134.337524 198.283081,138.986069 
	C193.771011,143.874054 188.429001,143.633835 182.758591,142.112106 
	C177.664612,140.745102 175.195236,136.786179 174.307922,132.123596 
	C173.181427,126.204056 174.999832,121.048775 180.317581,117.582634 
	C181.146149,117.042572 182.069946,116.648613 183.325470,116.054153 
z"/>
<path fill="#058CCD" opacity="1.000000" stroke="none" 
	d="
M761.483032,151.035187 
	C759.792908,139.454971 766.724243,132.456711 777.126770,134.621964 
	C782.338013,135.706665 785.932861,138.508896 787.124390,143.795547 
	C788.219482,148.654449 787.411621,153.190247 783.314819,156.434372 
	C778.988953,159.859863 773.892212,161.232681 768.914917,158.484146 
	C766.054993,156.904877 764.023132,153.825989 761.483032,151.035187 
z"/>
<path fill="#089ED9" opacity="1.000000" stroke="none" 
	d="
M585.384277,239.709335 
	C584.986572,208.594345 584.991211,177.324493 584.988892,145.595245 
	C585.318787,145.774078 585.950378,146.412537 585.949951,147.050552 
	C585.929871,177.885223 585.855164,208.719849 585.384277,239.709335 
z"/>
<path fill="#FAFDFE" opacity="1.000000" stroke="none" 
	d="
M414.220337,169.010132 
	C424.096619,168.907913 428.175690,171.755783 430.283539,180.753586 
	C432.819427,191.578735 432.786835,202.492554 429.766754,213.247101 
	C427.766754,220.369186 424.290344,222.925491 417.301849,223.060028 
	C410.487854,223.191208 406.310974,220.582047 404.417084,213.729446 
	C400.804260,200.657349 401.526031,187.459259 404.697845,174.391373 
	C405.821594,169.761353 409.871704,169.337280 414.220337,169.010132 
z"/>
<path fill="#FFFFFF" opacity="1.000000" stroke="none" 
	d="
M152.027435,239.991974 
	C152.558075,240.335831 152.824188,240.947403 153.090302,241.558975 
	C152.605194,241.512329 152.120071,241.465683 151.469452,241.137634 
	C151.456955,240.657379 151.609940,240.458527 152.027435,239.991974 
z"/>
</svg>